<?xml version="1.0" encoding="UTF-8" standalone="no"?>
<!-- Generator: Adobe Illustrator 19.0.0, SVG Export Plug-In . SVG Version: 6.00 Build 0)  -->

<svg
   xmlns:dc="http://purl.org/dc/elements/1.1/"
   xmlns:cc="http://creativecommons.org/ns#"
   xmlns:rdf="http://www.w3.org/1999/02/22-rdf-syntax-ns#"
   xmlns:svg="http://www.w3.org/2000/svg"
   xmlns="http://www.w3.org/2000/svg"
   xmlns:sodipodi="http://sodipodi.sourceforge.net/DTD/sodipodi-0.dtd"
   xmlns:inkscape="http://www.inkscape.org/namespaces/inkscape"
   version="1.1"
   id="Capa_1"
   x="0px"
   y="0px"
   viewBox="0 0 512 512"
   style="enable-background:new 0 0 512 512;"
   xml:space="preserve"
   sodipodi:docname="052-link.svg"
   inkscape:export-filename="C:\Users\Jorge Jr\Desktop\Designs\Portfolio\Icons\052-link.png"
   inkscape:export-xdpi="96"
   inkscape:export-ydpi="96"
   inkscape:version="0.92.4 (5da689c313, 2019-01-14)"><metadata
   id="metadata43"><rdf:RDF><cc:Work
       rdf:about=""><dc:format>image/svg+xml</dc:format><dc:type
         rdf:resource="http://purl.org/dc/dcmitype/StillImage" /></cc:Work></rdf:RDF></metadata><defs
   id="defs41" /><sodipodi:namedview
   pagecolor="#ffffff"
   bordercolor="#666666"
   borderopacity="1"
   objecttolerance="10"
   gridtolerance="10"
   guidetolerance="10"
   inkscape:pageopacity="0"
   inkscape:pageshadow="2"
   inkscape:window-width="1366"
   inkscape:window-height="715"
   id="namedview39"
   showgrid="false"
   inkscape:zoom="0.65186406"
   inkscape:cx="94.265463"
   inkscape:cy="194.38848"
   inkscape:window-x="-8"
   inkscape:window-y="-8"
   inkscape:window-maximized="1"
   inkscape:current-layer="Capa_1" />
<g
   id="g6"
   transform="rotate(90,256,256)"
   style="fill:#c4d2e1;fill-opacity:1">
	<g
   id="g4"
   style="fill:#c4d2e1;fill-opacity:1">
		<path
   d="M 336,175.436 V 80 C 336,35.888 300.112,0 256,0 211.888,0 176,35.888 176,80 v 95.436 c 0,37.208 25.532,68.563 59.997,77.467 v 6.194 C 201.532,268.002 176,299.357 176,336.564 V 432 c 0,44.112 35.888,80 80,80 44.112,0 80,-35.888 80,-80 v -95.436 c 0,-37.21 -25.536,-68.567 -60.003,-77.469 v -6.19 C 310.464,244.003 336,212.646 336,175.436 Z M 296,336.564 V 432 c 0,22.056 -17.944,40 -40,40 -22.056,0 -40,-17.944 -40,-40 v -95.436 c 0,-14.771 8.055,-27.689 19.997,-34.617 v 27.497 c 0,11.046 8.954,20 20,20 11.046,0 20,-8.954 20,-20 v -27.5 C 287.942,308.871 296,321.79 296,336.564 Z M 255.997,162.557 c -11.046,0 -20,8.954 -20,20 v 27.497 C 224.055,203.124 216,190.207 216,175.436 V 80 c 0,-22.056 17.944,-40 40,-40 22.056,0 40,17.944 40,40 v 95.436 c 0,14.774 -8.058,27.694 -20.003,34.621 v -27.5 c 0,-11.046 -8.954,-20 -20,-20 z"
   id="path2"
   inkscape:connector-curvature="0"
   style="fill:#c4d2e1;fill-opacity:1" />
	</g>
</g>
<g
   id="g8">
</g>
<g
   id="g10">
</g>
<g
   id="g12">
</g>
<g
   id="g14">
</g>
<g
   id="g16">
</g>
<g
   id="g18">
</g>
<g
   id="g20">
</g>
<g
   id="g22">
</g>
<g
   id="g24">
</g>
<g
   id="g26">
</g>
<g
   id="g28">
</g>
<g
   id="g30">
</g>
<g
   id="g32">
</g>
<g
   id="g34">
</g>
<g
   id="g36">
</g>
</svg>