<?xml version="1.0" encoding="UTF-8" standalone="no"?>
<!-- Generator: Adobe Illustrator 19.0.0, SVG Export Plug-In . SVG Version: 6.00 Build 0)  -->

<svg
   xmlns:dc="http://purl.org/dc/elements/1.1/"
   xmlns:cc="http://creativecommons.org/ns#"
   xmlns:rdf="http://www.w3.org/1999/02/22-rdf-syntax-ns#"
   xmlns:svg="http://www.w3.org/2000/svg"
   xmlns="http://www.w3.org/2000/svg"
   xmlns:sodipodi="http://sodipodi.sourceforge.net/DTD/sodipodi-0.dtd"
   xmlns:inkscape="http://www.inkscape.org/namespaces/inkscape"
   version="1.1"
   id="Capa_1"
   x="0px"
   y="0px"
   viewBox="0 0 512 512"
   style="enable-background:new 0 0 512 512;"
   xml:space="preserve"
   sodipodi:docname="100-user.svg"
   inkscape:export-filename="C:\Users\Jorge Jr\Desktop\Designs\Portfolio\Icons\100-user.png"
   inkscape:export-xdpi="96"
   inkscape:export-ydpi="96"
   inkscape:version="0.92.4 (5da689c313, 2019-01-14)"><metadata
   id="metadata49"><rdf:RDF><cc:Work
       rdf:about=""><dc:format>image/svg+xml</dc:format><dc:type
         rdf:resource="http://purl.org/dc/dcmitype/StillImage" /></cc:Work></rdf:RDF></metadata><defs
   id="defs47" /><sodipodi:namedview
   pagecolor="#ffffff"
   bordercolor="#666666"
   borderopacity="1"
   objecttolerance="10"
   gridtolerance="10"
   guidetolerance="10"
   inkscape:pageopacity="0"
   inkscape:pageshadow="2"
   inkscape:window-width="1366"
   inkscape:window-height="715"
   id="namedview45"
   showgrid="false"
   inkscape:zoom="0.4609375"
   inkscape:cx="-144.27119"
   inkscape:cy="256"
   inkscape:window-x="-8"
   inkscape:window-y="-8"
   inkscape:window-maximized="1"
   inkscape:current-layer="Capa_1" />
<g
   id="g6"
   style="fill:#c4d2e1;fill-opacity:1">
	<g
   id="g4"
   style="fill:#c4d2e1;fill-opacity:1">
		<path
   d="M256,0c-81.023,0-146.941,65.917-146.941,146.941S174.977,293.882,256,293.882s146.941-65.917,146.941-146.941    C402.941,65.917,337.023,0,256,0z M256,253.882c-58.968,0-106.941-47.973-106.941-106.941C149.059,87.973,197.032,40,256,40    s106.941,47.974,106.941,106.941C362.941,205.908,314.968,253.882,256,253.882z"
   id="path2"
   style="fill:#c4d2e1;fill-opacity:1" />
	</g>
</g>
<g
   id="g12"
   style="fill:#c4d2e1;fill-opacity:1">
	<g
   id="g10"
   style="fill:#c4d2e1;fill-opacity:1">
		<path
   d="M263.362,313.361h-14.723C150.137,313.361,70,393.498,70,492c0,5.304,2.107,10.391,5.857,14.142    C79.608,509.893,84.695,512,90,512h332c11.046,0,20-8.954,20-20C442,393.498,361.863,313.361,263.362,313.361z M111.438,472    c9.721-67.006,67.543-118.639,137.2-118.639h14.723c69.657,0,127.479,51.633,137.2,118.639H111.438z"
   id="path8"
   style="fill:#c4d2e1;fill-opacity:1" />
	</g>
</g>
<g
   id="g14">
</g>
<g
   id="g16">
</g>
<g
   id="g18">
</g>
<g
   id="g20">
</g>
<g
   id="g22">
</g>
<g
   id="g24">
</g>
<g
   id="g26">
</g>
<g
   id="g28">
</g>
<g
   id="g30">
</g>
<g
   id="g32">
</g>
<g
   id="g34">
</g>
<g
   id="g36">
</g>
<g
   id="g38">
</g>
<g
   id="g40">
</g>
<g
   id="g42">
</g>
</svg>